<svg xmlns="http://www.w3.org/2000/svg" width="24" height="24" fill="none" viewBox="0 0 24 24" id="meta">
  <path fill="url(#paint0_linear_1550_50)" fill-rule="evenodd" d="M7.70393 7C6.47036 7 5.35777 7.74172 4.88332 8.8804C4.45042 9.91936 3.86615 12.4951 3.60201 13.7249C3.52887 14.0655 3.49844 14.358 3.52192 14.6207C3.60056 15.5006 3.87329 15.9209 4.12807 16.1369C4.39556 16.3637 4.80186 16.5 5.39545 16.5C6.04893 16.5 6.65631 16.1634 7.00266 15.6092L8.64734 12.9777L10.834 9.3333L10.3241 8.48349C10.3241 8.48348 10.3241 8.48348 10.3241 8.48347C9.77186 7.56313 8.77724 7 7.70393 7ZM12.0002 7.39072C11.0792 5.90575 9.45485 5 7.70393 5C5.66296 5 3.82216 6.2272 3.03717 8.11117C2.51697 9.35965 1.89486 12.1491 1.6466 13.305C1.5509 13.7506 1.48175 14.2604 1.52986 14.7987C1.64065 16.0383 2.06892 17.0132 2.83467 17.6624C3.58771 18.3009 4.52146 18.5 5.39545 18.5C6.73851 18.5 7.98683 17.8081 8.69865 16.6692L10.3482 14.03L10.3577 14.0145L12.0002 11.277L13.6427 14.0145L13.6522 14.03L15.3017 16.6692C16.0135 17.8081 17.2618 18.5 18.6049 18.5C19.5877 18.5 20.6092 18.2197 21.3763 17.4143C22.137 16.6155 22.5002 15.4542 22.5002 14C22.5002 13.0773 22.1503 11.7339 21.8259 10.6585C21.4878 9.5377 21.123 8.53865 21.0109 8.2368C20.9847 8.16643 20.9535 8.08603 20.9156 8.00076C20.1056 6.17933 18.2972 5 16.2964 5C14.5455 5 12.9212 5.90576 12.0002 7.39072ZM13.1664 9.33331L15.353 12.9777L16.9977 15.6092C17.344 16.1634 17.9514 16.5 18.6049 16.5C19.2211 16.5 19.6472 16.3298 19.928 16.035C20.2152 15.7335 20.5002 15.1448 20.5002 14C20.5002 13.4158 20.2456 12.3449 19.9111 11.2361C19.5903 10.1728 19.2418 9.2178 19.1361 8.93332C19.1175 8.88318 19.1025 8.84564 19.0882 8.81345C18.5987 7.7128 17.5056 7 16.2964 7C15.2231 7 14.2285 7.56315 13.6762 8.48352L13.1664 9.33331Z" clip-rule="evenodd"></path>
  <defs>
    <linearGradient id="paint0_linear_1550_50" x1="12.007" x2="12.007" y1="5" y2="18.5" gradientUnits="userSpaceOnUse">
      <stop stop-color="#57EAEA"></stop>
      <stop offset="1" stop-color="#2BC9FF"></stop>
    </linearGradient>
  </defs>
</svg>
